<?xml version="1.0" encoding="utf-8"?>
<!-- Generator: Adobe Illustrator 16.0.0, SVG Export Plug-In . SVG Version: 6.00 Build 0)  -->
<!DOCTYPE svg PUBLIC "-//W3C//DTD SVG 1.1//EN" "http://www.w3.org/Graphics/SVG/1.1/DTD/svg11.dtd">
<svg version="1.1" id="Layer_1" xmlns="http://www.w3.org/2000/svg" xmlns:xlink="http://www.w3.org/1999/xlink" x="0px" y="0px"
	 width="20px" height="20px" viewBox="0 0 20 20" enable-background="new 0 0 20 20" xml:space="preserve">
<g>
	<path fill="#FEDD03" d="M9.727,18.038l-3.194-7.485h3.194l-4.06-8.02h-4.33L4.773,7.88H1.065L9.727,18.038z"/>
	<path fill="#FFFFFF" d="M8.644,10.553h1.083l-4.06-8.02H4.584L8.644,10.553z"/>
	<path fill="#F8991D" d="M1.337,7.88l8.661,10.158l-1.083-2.539L2.419,7.88H1.337z"/>
	<path fill="#010101" d="M6.939,10.82h2.788c0.081,0,0.189-0.054,0.244-0.133c0.054-0.081,0.054-0.187,0-0.267l-4.06-8.021
		c-0.054-0.08-0.135-0.133-0.244-0.133h-4.33c-0.109,0-0.19,0.053-0.244,0.133c-0.054,0.081-0.054,0.188,0,0.268l1.403,2.191
		c0.165-0.086,0.321-0.182,0.478-0.277l-1.15-1.781h3.681l3.789,7.485H6.533c-0.082,0-0.163,0.054-0.217,0.107
		c-0.054,0.08-0.054,0.16-0.027,0.241l2.49,5.88L1.634,8.147h3.14c0.109,0,0.19-0.053,0.244-0.134c0.055-0.08,0.055-0.187,0-0.267
		L3.474,5.355C3.467,5.359,3.461,5.363,3.455,5.367c-0.15,0.095-0.3,0.19-0.457,0.274L4.26,7.613H1.065
		c-0.108,0-0.189,0.053-0.244,0.16C0.768,7.88,0.795,7.987,0.849,8.067L9.51,18.226c0.054,0.054,0.136,0.08,0.217,0.08
		c0.054,0,0.108,0,0.135-0.026c0.108-0.081,0.162-0.214,0.108-0.321L6.939,10.82z"/>
</g>
<g>
	<path fill="#FEDD03" d="M18.938,7.88h-3.709l3.438-5.347h-4.331l-4.06,8.02h3.193l-3.193,7.485L18.938,7.88z"/>
	<path fill="#FFFFFF" d="M15.418,2.533h-1.083l-4.06,8.02h1.083L15.418,2.533z"/>
	<path fill="#F8991D" d="M17.583,7.88l-6.495,7.619l-1.083,2.539L18.666,7.88H17.583z"/>
	<path fill="#010101" d="M13.063,10.82h-2.787c-0.081,0-0.189-0.054-0.244-0.133c-0.054-0.081-0.054-0.187,0-0.267l4.06-8.021
		c0.054-0.08,0.135-0.133,0.243-0.133h4.331c0.108,0,0.189,0.053,0.244,0.133c0.054,0.081,0.054,0.188,0,0.268l-1.403,2.191
		c-0.165-0.086-0.321-0.182-0.479-0.277l1.15-1.781h-3.681l-3.79,7.485h2.76c0.081,0,0.163,0.054,0.217,0.107
		c0.055,0.08,0.055,0.16,0.027,0.241l-2.49,5.88l7.146-8.367h-3.14c-0.108,0-0.189-0.053-0.244-0.134
		c-0.054-0.08-0.054-0.187,0-0.267l1.544-2.391c0.007,0.004,0.014,0.008,0.02,0.012c0.15,0.095,0.301,0.19,0.457,0.274l-1.262,1.972
		h3.194c0.107,0,0.188,0.053,0.242,0.16c0.055,0.107,0.027,0.214-0.026,0.294l-8.662,10.158c-0.054,0.054-0.135,0.08-0.216,0.08
		c-0.054,0-0.108,0-0.135-0.026c-0.108-0.081-0.162-0.214-0.108-0.321L13.063,10.82z"/>
</g>
</svg>
