<?xml version="1.0" encoding="utf-8"?>
<!-- Generator: Adobe Illustrator 25.0.0, SVG Export Plug-In . SVG Version: 6.00 Build 0)  -->
<svg version="1.1" id="Layer_1" xmlns="http://www.w3.org/2000/svg" xmlns:xlink="http://www.w3.org/1999/xlink" x="0px" y="0px"
	 viewBox="0 0 20 20" style="enable-background:new 0 0 20 20;" xml:space="preserve">
<style type="text/css">
	.st0{fill:#FEDD0A;}
	.st1{fill:#F49924;}
</style>
<g>
	<path class="st0" d="M10.1,18.7l-3.9-8.5h3.6L5.2,1.1H0.4l3.8,6.1H0.1L10.1,18.7z"/>
	<path class="st1" d="M8.6,10.2h1.2L5.2,1.1H4L8.6,10.2z"/>
	<path class="st0" d="M20.1,7.2h-4.2l3.8-6.1h-4.8l-4.5,9.1H14l-3.9,8.5L20.1,7.2z"/>
	<path class="st1" d="M16.2,1.1H15l-4.5,9.1h1.2L16.2,1.1z"/>
	<path class="st1" d="M18.7,7.3l-7.3,8.5l-1.3,2.9l10-11.5h-1C19,7.2,18.8,7.2,18.7,7.3z"/>
	<path class="st1" d="M1.1,7.2h-1l10,11.5l-1.3-2.8L1.5,7.3C1.4,7.2,1.2,7.2,1.1,7.2z"/>
</g>
</svg>
